<?xml version="1.0" encoding="UTF-8"?><svg id="a" xmlns="http://www.w3.org/2000/svg" xmlns:xlink="http://www.w3.org/1999/xlink" viewBox="0 0 1095.3 722.59"><defs><style>.d{fill:#fff;}.e{fill:url(#c);}.f{fill:url(#b);}</style><linearGradient id="b" x1="472.44" y1="240.12" x2="805.72" y2="240.12" gradientTransform="matrix(1, 0, 0, 1, 0, 0)" gradientUnits="userSpaceOnUse"><stop offset=".11" stop-color="#281f44"/><stop offset=".49" stop-color="#ff10db"/><stop offset=".52" stop-color="#fe1ecc"/><stop offset=".6" stop-color="#fc46a4"/><stop offset=".69" stop-color="#fa8466"/><stop offset=".75" stop-color="#f9aa41"/><stop offset=".82" stop-color="#fabe4c"/><stop offset=".98" stop-color="#fcf269"/><stop offset="1" stop-color="#fdf96d"/></linearGradient><linearGradient id="c" x1="476.25" y1="462.61" x2="805.72" y2="462.61" gradientTransform="matrix(1, 0, 0, 1, 0, 0)" gradientUnits="userSpaceOnUse"><stop offset=".09" stop-color="#281f44"/><stop offset=".49" stop-color="#5b00ff"/><stop offset=".78" stop-color="#782eff"/><stop offset=".89" stop-color="#8b4dff"/><stop offset="1" stop-color="#9b66ff"/></linearGradient></defs><path class="d" d="M245.77,307.45h16v13h-16v-13Zm0,19.33h16v59.29h-16v-59.29Z"/><path class="d" d="M270.54,303.07h16.35v33.44l30.48-33.44h18.73l-30.82,34.27,33.66,48.73h-18.37l-25.61-37.23-8.07,9v28.22h-16.35v-82.99Z"/><path class="d" d="M332.73,356.5c0-18.5,13.01-31.73,31.14-31.73s31,13.23,31,31.73-12.88,31.72-31,31.72-31.14-13.23-31.14-31.72Zm45.8,0c0-11.09-5.71-18.26-14.66-18.26s-14.67,7.17-14.67,18.26,5.73,18.24,14.67,18.24,14.66-7.15,14.66-18.24Z"/><path class="d" d="M429.69,338.24c-8,0-13.25,7.63-13.25,19.09v28.98h-16.1v-59.64h16.1v10.14c3.7-7.52,10.62-12.05,19.33-12.05,12.64,0,19.8,9.42,19.8,25.89v35.65h-16.1v-34.95c0-8.34-3.58-13.12-9.78-13.12Z"/><rect class="d" x="487.11" y="326.67" width="17.47" height="13.49"/><path class="d" d="M472.66,307.69v19.09h-12.81v13.41h12.81v26.9c0,2.31,.23,4.4,.67,6.28v-65.68h-.67Z"/><path class="d" d="M488.68,340.18h.42v-13.41h-.42v-19.09h-15.35v65.68c1.75,7.48,6.99,11.62,15.77,12.5v-17.32c-.27-.86-.42-1.86-.42-2.99v-25.37Z"/><path class="d" d="M508.63,326.67h16.1v12.53c2.51-8.11,6.93-12.53,13.25-12.53h10.96v13.49h-9.78c-10.61,0-14.43,5.6-14.43,21.35v24.8h-16.1v-59.64Z"/><path class="d" d="M545.58,356.5c0-18.5,13.01-31.73,31.14-31.73s31,13.23,31,31.73-12.88,31.72-31,31.72-31.14-13.23-31.14-31.72Zm45.8,0c0-11.09-5.71-18.26-14.66-18.26s-14.67,7.17-14.67,18.26,5.73,18.24,14.67,18.24,14.66-7.15,14.66-18.24Z"/><path class="d" d="M614.58,301.88h16v84.19h-16v-84.19Z"/><path class="d" d="M637.66,364.37l6.89-1.18c.94,11.02,10.2,18.25,23.23,18.25s21.83-7.22,21.83-17.66-9.24-17.79-23-17.79h-8.3v-6.28h8.3c12.09,0,20.16-6.52,20.16-16.24s-7.7-16-19.2-16-18.74,5.68-19.81,14.57l-6.87-1.18c2.37-11.98,12.81-19.68,26.9-19.68,15.3,0,25.85,9.12,25.85,22.29,0,9.96-5.81,17.42-14.57,19.44,10.42,1.89,17.42,10.2,17.42,21.22,0,14.11-11.74,23.83-28.92,23.83s-28.82-9.37-29.89-23.59Z"/><path class="d" d="M702.15,344.93c0-27.04,11.61-43.75,30.47-43.75,13.41,0,24.2,8.18,27.39,20.86l-7.35,1.19c-1.89-9.72-9.72-15.77-20.28-15.77-15.77,0-23.47,13.51-23.7,42.32,2.96-10.66,12.22-17.66,24.31-17.66,15.53,0,26.55,11.5,26.55,27.74s-11.5,28.09-27.51,28.09c-18.61,0-29.88-16.12-29.88-43.03Zm50.51,15.18c0-12.69-8.54-21.7-20.75-21.7s-20.63,8.89-20.63,21.57,8.53,21.7,20.75,21.7,20.63-8.89,20.63-21.57Z"/><path class="d" d="M764.39,344.56c0-26.55,12.1-43.38,31.19-43.38s31.18,16.83,31.18,43.38-12.09,43.4-31.18,43.4-31.19-16.83-31.19-43.4Zm55.5,0c0-23.23-9.13-37.1-24.31-37.1s-24.31,13.87-24.31,37.1,9.13,37.11,24.31,37.11,24.31-13.87,24.31-37.11Z"/><g><path class="d" d="M838.74,304.19c-.11-1.34-.54-2.57-1.31-3.67-.95-1.34-2.21-2.26-3.76-2.79-.6-.2-1.22-.33-1.85-.37-1.2-.09-2.38,.05-3.51,.48-1.97,.76-3.4,2.08-4.26,4.01-.29,.65-.47,1.33-.55,2.04-.02,.18-.03,.37-.05,.55,0,.03,0,.05-.01,.08v.52c0,.11,.02,.22,.03,.32,.14,1.69,.77,3.17,1.91,4.42,1.12,1.23,2.51,2,4.14,2.34,.71,.15,1.44,.2,2.16,.14,2.02-.16,3.74-.95,5.13-2.44,.92-.99,1.51-2.16,1.79-3.49,.08-.4,.14-.8,.15-1.21,0-.03,0-.06,.01-.09v-.52c0-.11-.02-.23-.03-.34Zm-3.22,4.5c-.83,1.03-1.89,1.69-3.2,1.95-.62,.13-1.25,.13-1.88,.06-1.09-.13-2.07-.54-2.93-1.23-1.01-.83-1.66-1.88-1.98-3.15-.18-.69-.23-1.4-.16-2.11,.15-1.53,.76-2.84,1.89-3.89,.8-.74,1.74-1.22,2.81-1.4,1.39-.24,2.71-.03,3.93,.7,1.21,.73,2.03,1.78,2.49,3.11,.24,.68,.35,1.38,.35,2.11-.01,1.43-.43,2.73-1.33,3.86Z"/><path class="d" d="M833.93,306.05c-.21-.48-.52-.85-1.03-1.02-.02,0-.04-.04-.04-.06,0-.02,.02-.05,.04-.06,.16-.07,.32-.13,.48-.21,.35-.18,.65-.44,.84-.79,.17-.32,.21-.67,.17-1.03-.04-.37-.17-.72-.42-1.01-.3-.35-.69-.57-1.13-.7-.39-.12-.79-.16-1.19-.18-.64-.03-1.28-.01-1.92,.04-.4,.03-.79,.08-1.19,.13-.1,.01-.21,.03-.31,.04v7.45h1.72v-2.94s.02,0,.03,0c.42,0,.84-.03,1.26,.03,.55,.08,.9,.4,1.04,.93,.1,.39,.19,.79,.3,1.19,.07,.25,.14,.5,.28,.73,.03,.05,.07,.07,.13,.07,.55,0,1.1,0,1.65,0h.08s0-.02,0-.02c-.24-.48-.36-1-.47-1.52-.08-.36-.16-.72-.3-1.06Zm-1.86-1.86c-.23,.13-.48,.22-.73,.24-.44,.03-.89,.04-1.35,.05v-.1c0-.66,0-1.32,0-1.98,0-.06,.01-.09,.07-.1,.5-.08,.99-.11,1.49-.02,.32,.06,.6,.19,.8,.46,.26,.35,.33,1.08-.28,1.44Z"/></g><path class="f" d="M639.98,182.32c-76.56,0-141.89,48.16-167.54,115.61h15.84c24.82-59.19,83.45-100.9,151.7-100.9s123.93,39.76,149.73,96.68h16.01c-26.74-65.2-90.8-111.39-165.74-111.39Z"/><path class="e" d="M790.9,400.02c-20.25,64.23-79.77,110.91-149.91,110.91s-129.67-46.67-149.92-110.91h-14.82c20.75,72.2,86.68,125.18,164.74,125.18s143.98-52.98,164.73-125.18h-14.82Z"/><rect class="d" x="472.19" y="307.96" width="16.91" height="79.24"/><g><path class="d" d="M249.25,409.55l-2.87-10.48h1.29l2.19,8.54h.1l2.23-8.54h1.43l2.23,8.54h.1l2.19-8.54h1.29l-2.87,10.48h-1.31l-2.31-8.35h-.08l-2.31,8.35h-1.31Z"/><path class="d" d="M261.02,409.55v-10.48h6.33v1.13h-5.06v3.54h4.73v1.13h-4.73v3.56h5.14v1.13h-6.41Z"/><path class="d" d="M282.13,402.34h-1.27c-.08-.36-.21-.69-.39-.96s-.41-.51-.68-.7c-.26-.19-.56-.33-.88-.43s-.66-.14-1-.14c-.63,0-1.21,.16-1.72,.48-.51,.32-.92,.79-1.22,1.42-.3,.62-.45,1.39-.45,2.3s.15,1.67,.45,2.3c.3,.62,.71,1.1,1.22,1.42,.51,.32,1.09,.48,1.72,.48,.35,0,.68-.05,1-.14s.61-.24,.88-.43c.26-.19,.49-.42,.68-.7,.19-.28,.32-.6,.39-.96h1.27c-.1,.54-.27,1.01-.52,1.44-.25,.42-.57,.78-.94,1.08-.38,.29-.8,.52-1.26,.67s-.96,.23-1.49,.23c-.89,0-1.69-.22-2.39-.66-.7-.44-1.24-1.06-1.64-1.86-.4-.81-.6-1.76-.6-2.87s.2-2.06,.6-2.87c.4-.81,.95-1.43,1.64-1.86,.7-.44,1.49-.66,2.39-.66,.53,0,1.03,.08,1.49,.23s.89,.38,1.26,.67c.38,.3,.69,.65,.94,1.08,.25,.42,.43,.9,.52,1.44Z"/><path class="d" d="M293.02,404.31c0,1.11-.2,2.06-.6,2.87-.4,.81-.95,1.43-1.64,1.86s-1.49,.66-2.39,.66-1.69-.22-2.39-.66c-.7-.44-1.24-1.06-1.64-1.86-.4-.81-.6-1.76-.6-2.87s.2-2.06,.6-2.87c.4-.81,.95-1.43,1.64-1.86,.7-.44,1.49-.66,2.39-.66s1.69,.22,2.39,.66,1.24,1.06,1.64,1.86c.4,.81,.6,1.76,.6,2.87Zm-1.23,0c0-.91-.15-1.67-.45-2.3-.3-.62-.71-1.1-1.22-1.42-.51-.32-1.09-.48-1.72-.48s-1.21,.16-1.72,.48c-.51,.32-.92,.79-1.22,1.42-.3,.62-.45,1.39-.45,2.3s.15,1.67,.45,2.3c.3,.62,.71,1.1,1.22,1.42,.51,.32,1.09,.48,1.72,.48s1.21-.16,1.72-.48c.51-.32,.92-.79,1.22-1.42,.3-.62,.45-1.39,.45-2.3Z"/><path class="d" d="M303.47,399.07v10.48h-1.23l-5.71-8.23h-.1v8.23h-1.27v-10.48h1.23l5.73,8.25h.1v-8.25h1.25Z"/><path class="d" d="M314.32,399.07v10.48h-1.23l-5.71-8.23h-.1v8.23h-1.27v-10.48h1.23l5.73,8.25h.1v-8.25h1.25Z"/><path class="d" d="M316.86,409.55v-10.48h6.33v1.13h-5.06v3.54h4.73v1.13h-4.73v3.56h5.14v1.13h-6.41Z"/><path class="d" d="M333.91,402.34h-1.27c-.08-.36-.21-.69-.39-.96s-.41-.51-.68-.7c-.26-.19-.56-.33-.88-.43s-.66-.14-1-.14c-.63,0-1.21,.16-1.72,.48-.51,.32-.92,.79-1.22,1.42-.3,.62-.45,1.39-.45,2.3s.15,1.67,.45,2.3c.3,.62,.71,1.1,1.22,1.42,.51,.32,1.09,.48,1.72,.48,.35,0,.68-.05,1-.14s.61-.24,.88-.43c.26-.19,.49-.42,.68-.7,.19-.28,.32-.6,.39-.96h1.27c-.1,.54-.27,1.01-.52,1.44-.25,.42-.57,.78-.94,1.08-.38,.29-.8,.52-1.26,.67s-.96,.23-1.49,.23c-.89,0-1.69-.22-2.39-.66-.7-.44-1.24-1.06-1.64-1.86-.4-.81-.6-1.76-.6-2.87s.2-2.06,.6-2.87c.4-.81,.95-1.43,1.64-1.86,.7-.44,1.49-.66,2.39-.66,.53,0,1.03,.08,1.49,.23s.89,.38,1.26,.67c.38,.3,.69,.65,.94,1.08,.25,.42,.43,.9,.52,1.44Z"/><path class="d" d="M335.38,400.19v-1.13h7.86v1.13h-3.3v9.36h-1.27v-9.36h-3.3Z"/><path class="d" d="M345.44,409.63c-.25,0-.47-.09-.65-.27-.18-.18-.27-.4-.27-.65s.09-.47,.27-.65c.18-.18,.4-.27,.65-.27s.47,.09,.65,.27c.18,.18,.27,.4,.27,.65,0,.17-.04,.32-.13,.46s-.19,.25-.33,.33c-.14,.08-.29,.13-.46,.13Z"/><path class="d" d="M349.41,409.63c-.25,0-.47-.09-.65-.27-.18-.18-.27-.4-.27-.65s.09-.47,.27-.65c.18-.18,.4-.27,.65-.27s.47,.09,.65,.27c.18,.18,.27,.4,.27,.65,0,.17-.04,.32-.13,.46s-.19,.25-.33,.33c-.14,.08-.29,.13-.46,.13Z"/><path class="d" d="M351.27,399.07h1.45l2.91,4.89h.12l2.91-4.89h1.45l-3.79,6.16v4.32h-1.27v-4.32l-3.79-6.16Z"/><path class="d" d="M370.11,404.31c0,1.11-.2,2.06-.6,2.87-.4,.81-.95,1.43-1.64,1.86s-1.49,.66-2.39,.66-1.69-.22-2.39-.66c-.7-.44-1.24-1.06-1.64-1.86-.4-.81-.6-1.76-.6-2.87s.2-2.06,.6-2.87c.4-.81,.95-1.43,1.64-1.86,.7-.44,1.49-.66,2.39-.66s1.69,.22,2.39,.66,1.24,1.06,1.64,1.86c.4,.81,.6,1.76,.6,2.87Zm-1.23,0c0-.91-.15-1.67-.45-2.3-.3-.62-.71-1.1-1.22-1.42-.51-.32-1.09-.48-1.72-.48s-1.21,.16-1.72,.48c-.51,.32-.92,.79-1.22,1.42-.3,.62-.45,1.39-.45,2.3s.15,1.67,.45,2.3c.3,.62,.71,1.1,1.22,1.42,.51,.32,1.09,.48,1.72,.48s1.21-.16,1.72-.48c.51-.32,.92-.79,1.22-1.42,.3-.62,.45-1.39,.45-2.3Z"/><path class="d" d="M379.11,399.07h1.27v6.94c0,.72-.17,1.36-.5,1.92s-.81,1-1.42,1.33c-.61,.32-1.33,.48-2.15,.48s-1.54-.16-2.15-.48c-.61-.32-1.08-.76-1.42-1.33s-.5-1.2-.5-1.92v-6.94h1.27v6.84c0,.51,.11,.97,.34,1.36s.55,.71,.96,.94c.42,.23,.92,.34,1.5,.34s1.08-.11,1.5-.34c.42-.23,.74-.54,.96-.94,.22-.4,.34-.85,.34-1.36v-6.84Z"/><path class="d" d="M395.41,402.34h-1.27c-.08-.36-.21-.69-.39-.96s-.41-.51-.68-.7c-.26-.19-.56-.33-.88-.43s-.66-.14-1-.14c-.63,0-1.21,.16-1.72,.48-.51,.32-.92,.79-1.22,1.42-.3,.62-.45,1.39-.45,2.3s.15,1.67,.45,2.3c.3,.62,.71,1.1,1.22,1.42,.51,.32,1.09,.48,1.72,.48,.35,0,.68-.05,1-.14s.61-.24,.88-.43c.26-.19,.49-.42,.68-.7,.19-.28,.32-.6,.39-.96h1.27c-.1,.54-.27,1.01-.52,1.44-.25,.42-.57,.78-.94,1.08-.38,.29-.8,.52-1.26,.67s-.96,.23-1.49,.23c-.89,0-1.69-.22-2.39-.66-.7-.44-1.24-1.06-1.64-1.86-.4-.81-.6-1.76-.6-2.87s.2-2.06,.6-2.87c.4-.81,.95-1.43,1.64-1.86,.7-.44,1.49-.66,2.39-.66,.53,0,1.03,.08,1.49,.23s.89,.38,1.26,.67c.38,.3,.69,.65,.94,1.08,.25,.42,.43,.9,.52,1.44Z"/><path class="d" d="M406.3,404.31c0,1.11-.2,2.06-.6,2.87-.4,.81-.95,1.43-1.64,1.86s-1.49,.66-2.39,.66-1.69-.22-2.39-.66c-.7-.44-1.24-1.06-1.64-1.86-.4-.81-.6-1.76-.6-2.87s.2-2.06,.6-2.87c.4-.81,.95-1.43,1.64-1.86,.7-.44,1.49-.66,2.39-.66s1.69,.22,2.39,.66,1.24,1.06,1.64,1.86c.4,.81,.6,1.76,.6,2.87Zm-1.23,0c0-.91-.15-1.67-.45-2.3-.3-.62-.71-1.1-1.22-1.42-.51-.32-1.09-.48-1.72-.48s-1.21,.16-1.72,.48c-.51,.32-.92,.79-1.22,1.42-.3,.62-.45,1.39-.45,2.3s.15,1.67,.45,2.3c.3,.62,.71,1.1,1.22,1.42,.51,.32,1.09,.48,1.72,.48s1.21-.16,1.72-.48c.51-.32,.92-.79,1.22-1.42,.3-.62,.45-1.39,.45-2.3Z"/><path class="d" d="M416.74,399.07v10.48h-1.23l-5.71-8.23h-.1v8.23h-1.27v-10.48h1.23l5.73,8.25h.1v-8.25h1.25Z"/><path class="d" d="M418.71,400.19v-1.13h7.86v1.13h-3.3v9.36h-1.27v-9.36h-3.3Z"/><path class="d" d="M428.54,409.55v-10.48h3.54c.82,0,1.49,.14,2.02,.42,.53,.28,.91,.66,1.17,1.14,.25,.48,.38,1.04,.38,1.65s-.13,1.17-.38,1.64c-.25,.48-.64,.85-1.16,1.12-.52,.27-1.19,.41-2,.41h-2.87v-1.15h2.83c.56,0,1.01-.08,1.35-.25,.34-.16,.59-.4,.75-.7s.23-.66,.23-1.08-.08-.79-.24-1.1c-.16-.31-.41-.56-.75-.73-.34-.17-.8-.26-1.37-.26h-2.23v9.36h-1.27Zm4.93-4.71l2.58,4.71h-1.47l-2.54-4.71h1.43Z"/><path class="d" d="M446.59,404.31c0,1.11-.2,2.06-.6,2.87-.4,.81-.95,1.43-1.64,1.86s-1.49,.66-2.39,.66-1.69-.22-2.39-.66c-.7-.44-1.24-1.06-1.64-1.86-.4-.81-.6-1.76-.6-2.87s.2-2.06,.6-2.87c.4-.81,.95-1.43,1.64-1.86,.7-.44,1.49-.66,2.39-.66s1.69,.22,2.39,.66,1.24,1.06,1.64,1.86c.4,.81,.6,1.76,.6,2.87Zm-1.23,0c0-.91-.15-1.67-.45-2.3-.3-.62-.71-1.1-1.22-1.42-.51-.32-1.09-.48-1.72-.48s-1.21,.16-1.72,.48c-.51,.32-.92,.79-1.22,1.42-.3,.62-.45,1.39-.45,2.3s.15,1.67,.45,2.3c.3,.62,.71,1.1,1.22,1.42,.51,.32,1.09,.48,1.72,.48s1.21-.16,1.72-.48c.51-.32,.92-.79,1.22-1.42,.3-.62,.45-1.39,.45-2.3Z"/><path class="d" d="M448.72,409.55v-10.48h1.27v9.36h4.87v1.13h-6.14Z"/></g></svg>